<?xml version="1.0" standalone="no"?>
<!DOCTYPE svg PUBLIC "-//W3C//DTD SVG 20010904//EN"
 "http://www.w3.org/TR/2001/REC-SVG-20010904/DTD/svg10.dtd">
<svg version="1.0" xmlns="http://www.w3.org/2000/svg"
 width="145.000000pt" height="216.000000pt" viewBox="0 0 145.000000 216.000000"
 preserveAspectRatio="xMidYMid meet">

<g transform="translate(0.000000,216.000000) scale(0.100000,-0.100000)"
fill="#000000" stroke="none">
<path d="M298 1868 c-36 -62 -70 -122 -76 -133 -7 -16 6 -63 65 -220 44 -118
71 -205 66 -212 -4 -6 -39 -51 -77 -100 l-68 -88 6 -320 c3 -176 6 -382 6
-459 l0 -139 168 174 c200 207 469 496 488 525 16 24 356 804 357 819 0 6 -39
67 -88 138 l-88 127 -347 0 -347 0 -65 -112z m312 -56 c14 -10 33 -35 44 -56
16 -32 17 -44 7 -76 -23 -76 -103 -116 -168 -83 -103 51 -104 173 -2 226 39
20 81 16 119 -11z m360 0 c14 -10 33 -35 44 -56 16 -32 17 -44 7 -76 -23 -76
-103 -116 -168 -83 -103 51 -104 173 -2 226 39 20 81 16 119 -11z m-203 -251
c23 -32 45 -64 48 -72 3 -9 -13 -29 -45 -53 l-50 -38 -38 26 c-71 50 -74 54
-65 68 15 26 98 128 103 128 3 0 24 -27 47 -59z"/>
<path d="M502 1738 c-15 -15 -15 -51 0 -66 28 -28 78 -7 78 33 0 27 -18 45
-45 45 -12 0 -26 -5 -33 -12z"/>
<path d="M872 1738 c-28 -28 -7 -78 33 -78 12 0 26 5 33 12 7 7 12 21 12 33 0
12 -5 26 -12 33 -7 7 -21 12 -33 12 -12 0 -26 -5 -33 -12z"/>
</g>
</svg>
